<svg preserveAspectRatio="none" width="100%" height="100%" overflow="visible" style="display: block;" viewBox="0 0 97.2298 109.616" fill="none" xmlns="http://www.w3.org/2000/svg">
<path id="Icon" d="M48.6149 109.616C41.6993 109.616 35.2741 108.609 29.3392 106.597C23.4043 104.584 18.2693 101.823 13.9342 98.3135C9.59912 94.8041 6.19298 90.6497 3.71579 85.8502C1.2386 81.0506 0 75.864 0 70.2903V61.3105L14.5535 72.303L6.19298 80.6635C9.18625 88.0951 14.1922 93.9526 21.2109 98.2361C28.2296 102.52 36.6418 104.868 46.4473 105.281V49.2342H27.8684V44.8991H46.4473V28.9522C42.9379 28.2296 39.9963 26.5524 37.6223 23.9204C35.2484 21.2884 34.0614 18.166 34.0614 14.5535C34.0614 10.5281 35.4807 7.09612 38.3191 4.25767C41.1574 1.41922 44.5894 0 48.6149 0C52.6403 0 56.0723 1.41922 58.9107 4.25767C61.7491 7.09612 63.1684 10.5281 63.1684 14.5535C63.1684 18.166 61.9813 21.2884 59.6074 23.9204C57.2335 26.5524 54.2918 28.2296 50.7824 28.9522V44.8991H69.3614V49.2342H50.7824V105.281C60.5879 104.868 69.0259 102.545 76.0962 98.3135C83.1666 94.0817 88.1467 88.2499 91.0368 80.8184L82.6763 72.303L97.2298 61.3105V70.2903C97.2298 75.864 95.9912 81.0506 93.514 85.8502C91.0368 90.6497 87.6306 94.8041 83.2956 98.3135C78.9605 101.823 73.8254 104.584 67.8905 106.597C61.9556 108.609 55.5304 109.616 48.6149 109.616ZM48.6149 24.7719C51.4017 24.7719 53.8015 23.7656 55.8142 21.7528C57.8269 19.7401 58.8333 17.3403 58.8333 14.5535C58.8333 11.7667 57.8269 9.36688 55.8142 7.35416C53.8015 5.34144 51.4017 4.33508 48.6149 4.33508C45.828 4.33508 43.4283 5.34144 41.4155 7.35416C39.4028 9.36688 38.3965 11.7667 38.3965 14.5535C38.3965 17.3403 39.4028 19.7401 41.4155 21.7528C43.4283 23.7656 45.828 24.7719 48.6149 24.7719Z" fill="var(--fill-0, #C6C6C6)"/>
</svg>
