<svg preserveAspectRatio="none" width="100%" height="100%" overflow="visible" style="display: block;" viewBox="0 0 13.9935 13.9935" fill="none" xmlns="http://www.w3.org/2000/svg">
<g id="Icon" clip-path="url(#clip0_32_44)">
<path id="Vector" d="M7.48069 1.27108C7.32876 1.20178 7.16373 1.16592 6.99675 1.16592C6.82976 1.16592 6.66473 1.20178 6.51281 1.27108L1.51596 3.54502C1.4125 3.59064 1.32453 3.66536 1.26277 3.76008C1.20102 3.85481 1.16814 3.96544 1.16814 4.07852C1.16814 4.1916 1.20102 4.30223 1.26277 4.39696C1.32453 4.49168 1.4125 4.5664 1.51596 4.61202L6.51864 6.8918C6.67056 6.96109 6.8356 6.99696 7.00258 6.99696C7.16956 6.99696 7.33459 6.96109 7.48652 6.8918L12.4892 4.61785C12.5927 4.57223 12.6806 4.49751 12.7424 4.40279C12.8041 4.30806 12.837 4.19743 12.837 4.08435C12.837 3.97127 12.8041 3.86064 12.7424 3.76592C12.6806 3.67119 12.5927 3.59647 12.4892 3.55085L7.48069 1.27108Z" stroke="var(--stroke-0, #C0C0C0)" stroke-opacity="0.7" stroke-width="1.16612" stroke-linecap="round" stroke-linejoin="round"/>
<path id="Vector_2" d="M1.16612 6.99675C1.16585 7.10827 1.19756 7.21753 1.2575 7.31157C1.31744 7.40561 1.40309 7.4805 1.5043 7.52733L6.51864 9.80711C6.66977 9.87554 6.83376 9.91094 6.99966 9.91094C7.16557 9.91094 7.32956 9.87554 7.48069 9.80711L12.4834 7.53316C12.5866 7.48678 12.674 7.41136 12.7351 7.31611C12.7962 7.22086 12.8283 7.1099 12.8274 6.99675" stroke="var(--stroke-0, #C0C0C0)" stroke-opacity="0.7" stroke-width="1.16612" stroke-linecap="round" stroke-linejoin="round"/>
<path id="Vector_3" d="M1.16612 9.91206C1.16585 10.0236 1.19756 10.1328 1.2575 10.2269C1.31744 10.3209 1.40309 10.3958 1.5043 10.4426L6.51864 12.7224C6.66977 12.7909 6.83376 12.8263 6.99966 12.8263C7.16557 12.8263 7.32956 12.7909 7.48069 12.7224L12.4834 10.4485C12.5866 10.4021 12.674 10.3267 12.7351 10.2314C12.7962 10.1362 12.8283 10.0252 12.8274 9.91206" stroke="var(--stroke-0, #C0C0C0)" stroke-opacity="0.7" stroke-width="1.16612" stroke-linecap="round" stroke-linejoin="round"/>
</g>
<defs>
<clipPath id="clip0_32_44">
<rect width="13.9935" height="13.9935" fill="white"/>
</clipPath>
</defs>
</svg>
