<svg preserveAspectRatio="none" width="100%" height="100%" overflow="visible" style="display: block;" viewBox="0 0 13.9935 13.9935" fill="none" xmlns="http://www.w3.org/2000/svg">
<g id="Icon" clip-path="url(#clip0_32_51)">
<path id="Vector" d="M5.79389 9.03746C5.74183 8.83568 5.63666 8.65154 5.48931 8.50419C5.34196 8.35683 5.15781 8.25166 4.95603 8.1996L1.37894 7.2772C1.31791 7.25988 1.2642 7.22312 1.22595 7.17251C1.18771 7.12189 1.16701 7.06019 1.16701 6.99675C1.16701 6.93331 1.18771 6.8716 1.22595 6.82099C1.2642 6.77037 1.31791 6.73362 1.37894 6.71629L4.95603 5.79331C5.15774 5.7413 5.34184 5.63621 5.48918 5.48897C5.63653 5.34173 5.74174 5.1577 5.79389 4.95603L6.71629 1.37894C6.73344 1.31767 6.77016 1.2637 6.82085 1.22524C6.87154 1.18679 6.93341 1.16598 6.99704 1.16598C7.06066 1.16598 7.12254 1.18679 7.17323 1.22524C7.22392 1.2637 7.26064 1.31767 7.27778 1.37894L8.1996 4.95603C8.25166 5.15781 8.35683 5.34196 8.50419 5.48931C8.65154 5.63666 8.83568 5.74184 9.03746 5.79389L12.6146 6.71571C12.6761 6.73268 12.7303 6.76936 12.769 6.82012C12.8076 6.87089 12.8286 6.93294 12.8286 6.99675C12.8286 7.06056 12.8076 7.1226 12.769 7.17337C12.7303 7.22414 12.6761 7.26082 12.6146 7.27778L9.03746 8.1996C8.83568 8.25166 8.65154 8.35683 8.50419 8.50419C8.35683 8.65154 8.25166 8.83568 8.1996 9.03746L7.2772 12.6146C7.26005 12.6758 7.22333 12.7298 7.17264 12.7683C7.12196 12.8067 7.06008 12.8275 6.99646 12.8275C6.93283 12.8275 6.87096 12.8067 6.82027 12.7683C6.76958 12.7298 6.73286 12.6758 6.71571 12.6146L5.79389 9.03746Z" stroke="var(--stroke-0, #C0C0C0)" stroke-opacity="0.7" stroke-width="1.16612" stroke-linecap="round" stroke-linejoin="round"/>
<path id="Vector_2" d="M11.6612 1.74919V4.08144" stroke="var(--stroke-0, #C0C0C0)" stroke-opacity="0.7" stroke-width="1.16612" stroke-linecap="round" stroke-linejoin="round"/>
<path id="Vector_3" d="M12.8274 2.91531H10.4951" stroke="var(--stroke-0, #C0C0C0)" stroke-opacity="0.7" stroke-width="1.16612" stroke-linecap="round" stroke-linejoin="round"/>
<path id="Vector_4" d="M2.33225 9.91206V11.0782" stroke="var(--stroke-0, #C0C0C0)" stroke-opacity="0.7" stroke-width="1.16612" stroke-linecap="round" stroke-linejoin="round"/>
<path id="Vector_5" d="M2.91531 10.4951H1.74919" stroke="var(--stroke-0, #C0C0C0)" stroke-opacity="0.7" stroke-width="1.16612" stroke-linecap="round" stroke-linejoin="round"/>
</g>
<defs>
<clipPath id="clip0_32_51">
<rect width="13.9935" height="13.9935" fill="white"/>
</clipPath>
</defs>
</svg>
