<svg width="1024" height="1024" viewBox="0 0 1024 1024" fill="none" xmlns="http://www.w3.org/2000/svg">
  <!-- Background Circle (from Figma node 18:5) -->
  <circle cx="512" cy="512" r="512" fill="#292A2C"/>
  
  <!-- Centered Anchor Icon (scaled from Figma viewBox 25x28) -->
  <g transform="translate(256, 220) scale(20)">
    <path d="M12.8365 28.673C11.2538 28.673 9.6937 28.41 8.1562 27.884C6.61871 27.3581 5.24804 26.6393 4.0442 25.7278C2.84036 24.8163 1.86537 23.7446 1.11922 22.5129C0.373074 21.2812 0 19.9595 0 18.548V14.9423L5.04801 18.7355L2.8384 20.9451C3.5634 22.4221 4.73744 23.6447 6.36052 24.6129C7.9836 25.5812 9.76727 26.1615 11.7115 26.3538V12.8942H7.21152V10.6442H11.7115V8.07399C10.8461 7.80669 10.1298 7.31582 9.56248 6.60141C8.99517 5.88699 8.71152 5.06151 8.71152 4.12497C8.71152 2.98075 9.11296 2.0072 9.91584 1.20432C10.7187 0.40144 11.6923 0 12.8365 0C13.9807 0 14.9543 0.40144 15.7571 1.20432C16.56 2.0072 16.9615 2.98075 16.9615 4.12497C16.9615 5.06151 16.6778 5.88699 16.1105 6.60141C15.5432 7.31582 14.8268 7.80669 13.9615 8.07399V10.6442H18.4615V12.8942H13.9615V26.3538C15.9057 26.1615 17.6918 25.5836 19.3197 24.6202C20.9476 23.6567 22.1192 22.4365 22.8346 20.9596L20.625 18.7355L25.673 14.9423V18.548C25.673 19.9595 25.2999 21.2812 24.5538 22.5129C23.8076 23.7446 22.8326 24.8163 21.6288 25.7278C20.4249 26.6393 19.0543 27.3581 17.5168 27.884C15.9793 28.41 14.4192 28.673 12.8365 28.673V28.673M12.8365 6C13.3577 6 13.8004 5.81779 14.1649 5.45336C14.5293 5.08893 14.7115 4.64613 14.7115 4.12497C14.7115 3.60381 14.5293 3.16102 14.1649 2.79659C13.8004 2.43216 13.3577 2.24995 12.8365 2.24995C12.3153 2.24995 11.8725 2.43216 11.5081 2.79659C11.1437 3.16102 10.9615 3.60381 10.9615 4.12497C10.9615 4.64613 11.1437 5.08893 11.5081 5.45336C11.8725 5.81779 12.3153 6 12.8365 6V6" fill="#C6C6C6"/>
  </g>
</svg>
