<svg preserveAspectRatio="none" width="100%" height="100%" overflow="visible" style="display: block;" viewBox="0 0 85.1488 95.9958" fill="none" xmlns="http://www.w3.org/2000/svg">
<path id="Icon" d="M42.5744 95.9958C36.5181 95.9958 30.8913 95.1145 25.6938 93.3519C20.4963 91.5892 15.9993 89.1713 12.2029 86.0979C8.40641 83.0246 5.42349 79.3864 3.2541 75.1832C1.0847 70.98 0 66.4378 0 61.5566V53.6926L12.7452 63.3193L5.42349 70.641C8.04484 77.1492 12.4288 82.2788 18.5755 86.0301C24.722 89.7814 32.089 91.8378 40.6762 92.1994V43.1168H24.4057V39.3203H40.6762V25.3548C37.6028 24.722 35.0267 23.2532 32.9477 20.9482C30.8688 18.6433 29.8292 15.9089 29.8292 12.7452C29.8292 9.21994 31.0721 6.21441 33.5579 3.72865C36.0436 1.24288 39.0491 0 42.5744 0C46.0997 0 49.1052 1.24288 51.591 3.72865C54.0767 6.21441 55.3196 9.21994 55.3196 12.7452C55.3196 15.9089 54.2801 18.6433 52.2011 20.9482C50.1221 23.2532 47.546 24.722 44.4726 25.3548V39.3203H60.7431V43.1168H44.4726V92.1994C53.0598 91.8378 60.4493 89.8039 66.6412 86.0979C72.833 82.3919 77.1943 77.2848 79.7253 70.7766L72.4036 63.3193L85.1488 53.6926V61.5566C85.1488 66.4378 84.0641 70.98 81.8947 75.1832C79.7253 79.3864 76.7424 83.0246 72.946 86.0979C69.1495 89.1713 64.6525 91.5892 59.455 93.3519C54.2576 95.1145 48.6307 95.9958 42.5744 95.9958ZM42.5744 21.694C45.015 21.694 47.1166 20.8127 48.8792 19.05C50.6419 17.2874 51.5232 15.1858 51.5232 12.7452C51.5232 10.3046 50.6419 8.20303 48.8792 6.4404C47.1166 4.67776 45.015 3.79644 42.5744 3.79644C40.1338 3.79644 38.0322 4.67776 36.2696 6.4404C34.507 8.20303 33.6256 10.3046 33.6256 12.7452C33.6256 15.1858 34.507 17.2874 36.2696 19.05C38.0322 20.8127 40.1338 21.694 42.5744 21.694Z" fill="var(--fill-0, #C6C6C6)"/>
</svg>
