<svg preserveAspectRatio="none" width="100%" height="100%" overflow="visible" style="display: block;" viewBox="0 0 19.9907 19.9907" fill="none" xmlns="http://www.w3.org/2000/svg">
<g id="GoogleIcon" clip-path="url(#clip0_32_27)">
<path id="Vector" d="M18.7913 10.2036C18.7913 9.55389 18.733 8.92918 18.6247 8.32946H9.99535V11.8778H14.9264C14.8239 12.4387 14.6087 12.973 14.2937 13.4484C13.9787 13.9237 13.5705 14.3302 13.0939 14.6432V16.9505H16.0675C17.8001 15.3512 18.7996 13.0023 18.7996 10.2036H18.7913Z" fill="var(--fill-0, #4285F4)"/>
<path id="Vector_2" d="M9.99535 19.1578C12.4692 19.1578 14.5432 18.3415 16.0592 16.9421L13.0856 14.6349C12.2693 15.1846 11.2281 15.5178 9.99535 15.5178C7.61313 15.5178 5.58907 13.9102 4.86441 11.7445H1.81582V14.1101C3.32345 17.1004 6.41368 19.1578 9.99535 19.1578Z" fill="var(--fill-0, #34A853)"/>
<path id="Vector_3" d="M4.8644 11.7362C4.68116 11.1865 4.57287 10.6034 4.57287 9.99535C4.57287 9.3873 4.68116 8.80424 4.8644 8.2545V5.88893H1.81582C1.19111 7.12169 0.832946 8.51271 0.832946 9.99535C0.832946 11.478 1.19111 12.869 1.81582 14.1018L4.18972 12.2526L4.8644 11.7362Z" fill="var(--fill-0, #FBBC05)"/>
<path id="Vector_4" d="M9.99535 4.48125C11.3447 4.48125 12.5442 4.9477 13.5021 5.84728L16.1258 3.2235C14.5349 1.74086 12.4692 0.832946 9.99535 0.832946C6.41368 0.832946 3.32345 2.89032 1.81582 5.88893L4.86441 8.2545C5.58907 6.08884 7.61313 4.48125 9.99535 4.48125Z" fill="var(--fill-0, #EA4335)"/>
</g>
<defs>
<clipPath id="clip0_32_27">
<rect width="19.9907" height="19.9907" fill="white"/>
</clipPath>
</defs>
</svg>
