<svg preserveAspectRatio="none" width="100%" height="100%" overflow="visible" style="display: block;" viewBox="0 0 19.9907 19.9907" fill="none" xmlns="http://www.w3.org/2000/svg">
<g id="FacebookIcon" clip-path="url(#clip0_32_24)">
<path id="Vector" d="M19.9907 9.99535C19.9907 4.47542 15.5153 0 9.99535 0C4.47542 0 0 4.47542 0 9.99535C0 14.9847 3.65497 19.1194 8.43358 19.8691V12.8857H5.89559V9.99535H8.43358V7.79304C8.43358 5.28837 9.92622 3.90485 12.2093 3.90485C13.3021 3.90485 14.4466 4.09976 14.4466 4.09976V6.55945H13.1855C11.9436 6.55945 11.5563 7.32993 11.5563 8.12122V9.99535H14.3283L13.8852 12.8857H11.5563V19.8699C16.3357 19.1194 19.9907 14.9847 19.9907 9.99535Z" fill="var(--fill-0, #1877F2)"/>
</g>
<defs>
<clipPath id="clip0_32_24">
<rect width="19.9907" height="19.9907" fill="white"/>
</clipPath>
</defs>
</svg>
