<svg preserveAspectRatio="none" width="100%" height="100%" overflow="visible" style="display: block;" viewBox="0 0 19.9907 19.9907" fill="none" xmlns="http://www.w3.org/2000/svg">
<g id="AppleIcon">
<path id="Vector" d="M14.2017 16.8921C13.3854 17.6834 12.4942 17.6251 11.6363 17.2253C10.7283 16.8089 9.90373 16.7922 8.94584 17.2253C7.7464 17.7418 7.11336 17.5918 6.39703 16.8921C3.15687 13.4687 3.63164 7.93798 7.24663 7.72974C8.27115 7.77972 8.97916 8.32946 9.57888 8.35445C10.3785 8.18786 11.1448 7.62146 12.0361 7.68809C13.0773 7.77139 13.8686 8.18786 14.385 8.93751C12.236 10.2119 12.7441 13.0023 14.8181 13.7853C14.3933 14.9097 13.8436 16.0176 12.5442 16.8921H14.2017ZM10.0203 7.64644C9.91206 5.75566 11.453 4.20638 13.2438 4.05645C13.4937 6.12215 11.378 7.7464 10.0203 7.64644Z" fill="var(--fill-0, white)"/>
</g>
</svg>
