<svg preserveAspectRatio="none" width="100%" height="100%" overflow="visible" style="display: block;" viewBox="0 0 16.4931 11.9935" fill="none" xmlns="http://www.w3.org/2000/svg">
<path id="Vector" d="M0.796509 6.25763C0.734032 6.08932 0.734032 5.90418 0.796509 5.73587C1.405 4.26045 2.43788 2.99892 3.76421 2.11123C5.09053 1.22354 6.65057 0.749651 8.24655 0.749651C9.84252 0.749651 11.4026 1.22354 12.7289 2.11123C14.0552 2.99892 15.0881 4.26045 15.6966 5.73587C15.7591 5.90418 15.7591 6.08932 15.6966 6.25763C15.0881 7.73305 14.0552 8.99458 12.7289 9.88227C11.4026 10.77 9.84252 11.2438 8.24655 11.2438C6.65057 11.2438 5.09053 10.77 3.76421 9.88227C2.43788 8.99458 1.405 7.73305 0.796509 6.25763Z" stroke="var(--stroke-0, #C0C0C0)" stroke-opacity="0.4" stroke-width="1.4993" stroke-linecap="round" stroke-linejoin="round"/>
</svg>
