<svg preserveAspectRatio="none" width="100%" height="100%" overflow="visible" style="display: block;" viewBox="0 0 29.8322 33.6325" fill="none" xmlns="http://www.w3.org/2000/svg">
<path id="Icon" d="M14.9161 33.6325C12.7943 33.6325 10.8229 33.3237 9.00192 32.7062C7.18097 32.0886 5.60542 31.2415 4.27532 30.1648C2.94522 29.088 1.90014 27.8133 1.14009 26.3407C0.380028 24.8681 0 23.2767 0 21.5666V18.8114L4.46533 22.1842L1.90014 24.7493C2.81854 27.0295 4.35449 28.8267 6.50799 30.141C8.66146 31.4553 11.2425 32.1757 14.2511 32.3024V15.1061H8.55064V13.776H14.2511V8.88316C13.1743 8.66146 12.2717 8.14686 11.5434 7.3393C10.815 6.53174 10.4508 5.57373 10.4508 4.46533C10.4508 3.23024 10.8862 2.17724 11.7571 1.30635C12.628 0.435449 13.681 0 14.9161 0C16.1512 0 17.2042 0.435449 18.0751 1.30635C18.946 2.17724 19.3814 3.23024 19.3814 4.46533C19.3814 5.57373 19.0172 6.53174 18.2889 7.3393C17.5605 8.14686 16.6579 8.66146 15.5812 8.88316V13.776H21.2816V15.1061H15.5812V32.3024C18.5897 32.1757 21.1786 31.4632 23.348 30.1648C25.5173 28.8663 27.0453 27.077 27.9321 24.7969L25.3669 22.1842L29.8322 18.8114V21.5666C29.8322 23.2767 29.4522 24.8681 28.6921 26.3407C27.9321 27.8133 26.887 29.088 25.5569 30.1648C24.2268 31.2415 22.6513 32.0886 20.8303 32.7062C19.0094 33.3237 17.038 33.6325 14.9161 33.6325ZM14.9161 7.60057C15.7712 7.60057 16.5075 7.29179 17.125 6.67425C17.7426 6.0567 18.0513 5.3204 18.0513 4.46533C18.0513 3.61027 17.7426 2.87396 17.125 2.25642C16.5075 1.63887 15.7712 1.3301 14.9161 1.3301C14.061 1.3301 13.3247 1.63887 12.7072 2.25642C12.0897 2.87396 11.7809 3.61027 11.7809 4.46533C11.7809 5.3204 12.0897 6.0567 12.7072 6.67425C13.3247 7.29179 14.061 7.60057 14.9161 7.60057Z" fill="var(--fill-0, #C6C6C6)"/>
</svg>
